<?xml version="1.0" encoding="UTF-8" standalone="no"?>
<!-- Created with Inkscape (http://www.inkscape.org/) -->

<svg
   xmlns:dc="http://purl.org/dc/elements/1.1/"
   xmlns:cc="http://creativecommons.org/ns#"
   xmlns:rdf="http://www.w3.org/1999/02/22-rdf-syntax-ns#"
   xmlns:svg="http://www.w3.org/2000/svg"
   xmlns="http://www.w3.org/2000/svg"
   xmlns:sodipodi="http://sodipodi.sourceforge.net/DTD/sodipodi-0.dtd"
   xmlns:inkscape="http://www.inkscape.org/namespaces/inkscape"
   width="4.8683333mm"
   height="4.0685215mm"
   viewBox="0 0 17.25 14.416021"
   id="svg8322"
   version="1.1"
   inkscape:version="0.91 r13725"
   sodipodi:docname="camera.svg">
  <defs
     id="defs8324" />
  <sodipodi:namedview
     id="base"
     pagecolor="#ffffff"
     bordercolor="#666666"
     borderopacity="1.0"
     inkscape:pageopacity="0.0"
     inkscape:pageshadow="2"
     inkscape:zoom="59.725221"
     inkscape:cx="8.625"
     inkscape:cy="7.2080112"
     inkscape:document-units="px"
     inkscape:current-layer="layer1"
     showgrid="false"
     inkscape:window-width="1920"
     inkscape:window-height="1011"
     inkscape:window-x="0"
     inkscape:window-y="21"
     inkscape:window-maximized="1"
     fit-margin-top="0"
     fit-margin-left="0"
     fit-margin-right="0"
     fit-margin-bottom="0" />
  <metadata
     id="metadata8327">
    <rdf:RDF>
      <cc:Work
         rdf:about="">
        <dc:format>image/svg+xml</dc:format>
        <dc:type
           rdf:resource="http://purl.org/dc/dcmitype/StillImage" />
        <dc:title />
      </cc:Work>
    </rdf:RDF>
  </metadata>
  <g
     inkscape:label="Layer 1"
     inkscape:groupmode="layer"
     id="layer1"
     transform="translate(-370.788,-721.36629)">
    <path
       style="color:#000000;font-style:normal;font-variant:normal;font-weight:normal;font-stretch:normal;font-size:medium;line-height:normal;font-family:sans-serif;text-indent:0;text-align:start;text-decoration:none;text-decoration-line:none;text-decoration-style:solid;text-decoration-color:#000000;letter-spacing:normal;word-spacing:normal;text-transform:none;direction:ltr;block-progression:tb;writing-mode:lr-tb;baseline-shift:baseline;text-anchor:start;white-space:normal;clip-rule:nonzero;display:inline;overflow:visible;visibility:visible;opacity:1;isolation:auto;mix-blend-mode:normal;color-interpolation:sRGB;color-interpolation-filters:linearRGB;solid-color:#000000;solid-opacity:1;fill:#ffffff;fill-opacity:1;fill-rule:nonzero;stroke:none;stroke-width:1;stroke-linecap:round;stroke-linejoin:round;stroke-miterlimit:4;stroke-dasharray:none;stroke-dashoffset:0;stroke-opacity:1;color-rendering:auto;image-rendering:auto;shape-rendering:auto;text-rendering:auto;enable-background:accumulate"
       d="m 379.78995,721.36629 c -0.17884,-2e-4 -0.34416,0.0951 -0.43359,0.25 l -1.25,2.16602 -4.4707,0 c -1.56906,0 -2.84766,1.2786 -2.84766,2.84766 l 0,6.30468 c 0,1.56906 1.2786,2.84766 2.84766,2.84766 l 11.55468,0 c 1.56906,0 2.84766,-1.2786 2.84766,-2.84766 l 0,-6.30468 c 0,-1.56906 -1.2786,-2.84766 -2.84766,-2.84766 l -1.00586,0 -1.25,-2.16602 c -0.0894,-0.15487 -0.25475,-0.2502 -0.43359,-0.25 l -2.71094,0 z m -5.06836,4.35352 a 0.50005,0.50005 0 0 1 0.50586,0.50781 l 0,7.625 a 0.50005,0.50005 0 1 1 -1,0 l 0,-7.625 a 0.50005,0.50005 0 0 1 0.49414,-0.50781 z m 6.42383,0.60547 c 1.91561,0 3.45703,1.54142 3.45703,3.45703 0,1.91561 -1.54142,3.45703 -3.45703,3.45703 -1.91561,0 -3.45703,-1.54142 -3.45703,-3.45703 0,-1.91561 1.54142,-3.45703 3.45703,-3.45703 z"
       id="rect4721"
       inkscape:connector-curvature="0" />
  </g>
</svg>
