<?xml version="1.0" encoding="UTF-8" standalone="no"?>
<!-- Created with Inkscape (http://www.inkscape.org/) -->

<svg
   xmlns:dc="http://purl.org/dc/elements/1.1/"
   xmlns:cc="http://creativecommons.org/ns#"
   xmlns:rdf="http://www.w3.org/1999/02/22-rdf-syntax-ns#"
   xmlns:svg="http://www.w3.org/2000/svg"
   xmlns="http://www.w3.org/2000/svg"
   xmlns:sodipodi="http://sodipodi.sourceforge.net/DTD/sodipodi-0.dtd"
   xmlns:inkscape="http://www.inkscape.org/namespaces/inkscape"
   width="4.722259mm"
   height="4.0891433mm"
   viewBox="0 0 16.732414 14.48909"
   id="svg8322"
   version="1.1"
   inkscape:version="0.91 r13725"
   sodipodi:docname="comment.svg">
  <defs
     id="defs8324" />
  <sodipodi:namedview
     id="base"
     pagecolor="#ffffff"
     bordercolor="#666666"
     borderopacity="1.0"
     inkscape:pageopacity="0.0"
     inkscape:pageshadow="2"
     inkscape:zoom="24.811594"
     inkscape:cx="8.0116731"
     inkscape:cy="15.374996"
     inkscape:document-units="px"
     inkscape:current-layer="layer1"
     showgrid="true"
     inkscape:window-width="1680"
     inkscape:window-height="979"
     inkscape:window-x="0"
     inkscape:window-y="54"
     inkscape:window-maximized="1"
     fit-margin-top="0"
     fit-margin-left="0"
     fit-margin-right="0"
     fit-margin-bottom="0"
     inkscape:snap-page="true"
     inkscape:snap-grids="true">
    <inkscape:grid
       type="xygrid"
       id="grid4148"
       originx="-0.25879"
       originy="0.036538938" />
  </sodipodi:namedview>
  <metadata
     id="metadata8327">
    <rdf:RDF>
      <cc:Work
         rdf:about="">
        <dc:format>image/svg+xml</dc:format>
        <dc:type
           rdf:resource="http://purl.org/dc/dcmitype/StillImage" />
        <dc:title></dc:title>
      </cc:Work>
    </rdf:RDF>
  </metadata>
  <g
     inkscape:label="Layer 1"
     inkscape:groupmode="layer"
     id="layer1"
     transform="translate(-371.04679,-721.32976)">
    <path
       style="color:#000000;font-style:normal;font-variant:normal;font-weight:normal;font-stretch:normal;font-size:medium;line-height:normal;font-family:sans-serif;text-indent:0;text-align:start;text-decoration:none;text-decoration-line:none;text-decoration-style:solid;text-decoration-color:#000000;letter-spacing:normal;word-spacing:normal;text-transform:none;direction:ltr;block-progression:tb;writing-mode:lr-tb;baseline-shift:baseline;text-anchor:start;white-space:normal;clip-rule:nonzero;display:inline;overflow:visible;visibility:visible;opacity:1;isolation:auto;mix-blend-mode:normal;color-interpolation:sRGB;color-interpolation-filters:linearRGB;solid-color:#000000;solid-opacity:1;fill:#ffffff;fill-opacity:1;fill-rule:nonzero;stroke:none;stroke-width:1;stroke-linecap:round;stroke-linejoin:round;stroke-miterlimit:4;stroke-dasharray:none;stroke-dashoffset:0;stroke-opacity:1;color-rendering:auto;image-rendering:auto;shape-rendering:auto;text-rendering:auto;enable-background:accumulate"
       d="m 385.65755,721.32976 c -0.035,-1.3e-4 -0.0697,0.0185 -0.0896,0.0473 l -3.46933,5.03924 -3.46934,5.03924 c -0.0153,0.0231 -0.022,0.0522 -0.0169,0.0794 a 1.0216131,1.0216131 0 0 1 0.002,0.002 l 0.31263,1.70171 c 0.0116,0.0543 0.0703,0.0962 0.12505,0.0862 l -0.002,0.002 1.70172,-0.31432 c 0.0278,-0.005 0.0532,-0.0223 0.0693,-0.0456 l 6.94037,-10.07679 c 0.032,-0.0465 0.0194,-0.11661 -0.027,-0.14871 l -2.01604,-1.38909 c -0.0178,-0.0123 -0.0392,-0.0203 -0.0608,-0.0203 l 0,-0.002 z m -14.21532,2.40133 c -0.21893,2e-5 -0.39542,0.17554 -0.39544,0.39206 l 0,11.30365 c 3e-5,0.21653 0.17651,0.39203 0.39544,0.39205 l 13.67793,0 c 0.21893,-3e-5 0.39541,-0.17553 0.39544,-0.39205 l 0,-8.0371 -1.32656,1.92647 0,5.28258 -11.81569,0 0,-9.64756 9.88077,0 0.84156,-1.2201 -11.65345,0 z m 2.53313,2.86098 a 0.6489812,0.6489812 0 1 0 0,1.29783 l 1.81325,0 a 0.6489812,0.6489812 0 1 0 0,-1.29783 l -1.81325,0 z m 4.07939,0 a 0.6489812,0.6489812 0 1 0 0,1.29783 l 2.17657,0 0.89395,-1.29783 -3.07052,0 z m -4.07939,2.53314 a 0.6489812,0.6489812 0 1 0 0,1.29783 l 4.07939,0 a 0.6489812,0.6489812 0 1 0 0,-1.29783 l -4.07939,0 z m 0,2.53314 a 0.6489812,0.6489812 0 1 0 0,1.29783 l 4.18247,0 -0.23827,-1.29107 a 0.81117817,0.81117817 0 0 1 -0.002,-0.007 l -3.94251,0 z"
       id="rect4134"
       inkscape:connector-curvature="0" />
  </g>
</svg>
