<?xml version="1.0" encoding="UTF-8" standalone="no"?>
<!-- Created with Inkscape (http://www.inkscape.org/) -->

<svg
   xmlns:dc="http://purl.org/dc/elements/1.1/"
   xmlns:cc="http://creativecommons.org/ns#"
   xmlns:rdf="http://www.w3.org/1999/02/22-rdf-syntax-ns#"
   xmlns:svg="http://www.w3.org/2000/svg"
   xmlns="http://www.w3.org/2000/svg"
   xmlns:sodipodi="http://sodipodi.sourceforge.net/DTD/sodipodi-0.dtd"
   xmlns:inkscape="http://www.inkscape.org/namespaces/inkscape"
   width="5.0033822mm"
   height="4.1396441mm"
   viewBox="0 0 17.72852 14.66803"
   id="svg7740"
   version="1.1"
   inkscape:version="0.91 r13725"
   sodipodi:docname="date.svg">
  <defs
     id="defs7742" />
  <sodipodi:namedview
     id="base"
     pagecolor="#ffffff"
     bordercolor="#666666"
     borderopacity="1.0"
     inkscape:pageopacity="0.0"
     inkscape:pageshadow="2"
     inkscape:zoom="58.699084"
     inkscape:cx="8.86426"
     inkscape:cy="7.3340155"
     inkscape:document-units="px"
     inkscape:current-layer="layer1"
     showgrid="false"
     inkscape:window-width="1920"
     inkscape:window-height="1011"
     inkscape:window-x="0"
     inkscape:window-y="21"
     inkscape:window-maximized="1"
     fit-margin-top="0"
     fit-margin-left="0"
     fit-margin-right="0"
     fit-margin-bottom="0" />
  <metadata
     id="metadata7745">
    <rdf:RDF>
      <cc:Work
         rdf:about="">
        <dc:format>image/svg+xml</dc:format>
        <dc:type
           rdf:resource="http://purl.org/dc/dcmitype/StillImage" />
        <dc:title />
      </cc:Work>
    </rdf:RDF>
  </metadata>
  <g
     inkscape:label="Layer 1"
     inkscape:groupmode="layer"
     id="layer1"
     transform="translate(-119.82068,-614.14121)">
    <path
       inkscape:connector-curvature="0"
       style="color:#000000;font-style:normal;font-variant:normal;font-weight:normal;font-stretch:normal;font-size:medium;line-height:normal;font-family:sans-serif;text-indent:0;text-align:start;text-decoration:none;text-decoration-line:none;text-decoration-style:solid;text-decoration-color:#000000;letter-spacing:normal;word-spacing:normal;text-transform:none;direction:ltr;block-progression:tb;writing-mode:lr-tb;baseline-shift:baseline;text-anchor:start;white-space:normal;clip-rule:nonzero;display:inline;overflow:visible;visibility:visible;opacity:1;isolation:auto;mix-blend-mode:normal;color-interpolation:sRGB;color-interpolation-filters:linearRGB;solid-color:#000000;solid-opacity:1;fill:#ffffff;fill-opacity:1;fill-rule:nonzero;stroke:none;stroke-width:1;stroke-linecap:round;stroke-linejoin:round;stroke-miterlimit:4;stroke-dasharray:none;stroke-dashoffset:0;stroke-opacity:1;color-rendering:auto;image-rendering:auto;shape-rendering:auto;text-rendering:auto;enable-background:accumulate"
       d="m 122.78943,614.14127 a 0.50005,0.50005 0 0 0 -0.49219,0.50782 l 0,1.17187 -1.97656,0 a 0.50005,0.50005 0 0 0 -0.5,0.5 l 0,11.98828 a 0.50005,0.50005 0 0 0 0.5,0.5 l 16.72852,0 a 0.50005,0.50005 0 0 0 0.5,-0.5 l 0,-11.98828 a 0.50005,0.50005 0 0 0 -0.5,-0.5 l -1.97656,0 0,-1.17187 a 0.50005,0.50005 0 0 0 -0.50586,-0.50782 0.50005,0.50005 0 0 0 -0.49414,0.50782 l 0,1.17187 -1,0 0,-1.17187 a 0.50005,0.50005 0 0 0 -0.50586,-0.50782 0.50005,0.50005 0 0 0 -0.49414,0.50782 l 0,1.17187 -6.7754,0 0,-1.17187 a 0.50005,0.50005 0 0 0 -0.50781,-0.50782 0.50005,0.50005 0 0 0 -0.49219,0.50782 l 0,1.17187 -1,0 0,-1.17187 a 0.50005,0.50005 0 0 0 -0.50781,-0.50782 z m -1.96875,2.67969 1.47656,0 0,1.16992 a 0.50005,0.50005 0 1 0 1,0 l 0,-1.16992 1,0 0,1.16992 a 0.50005,0.50005 0 1 0 1,0 l 0,-1.16992 6.7754,0 0,1.16992 a 0.50005,0.50005 0 1 0 1,0 l 0,-1.16992 1,0 0,1.16992 a 0.50005,0.50005 0 1 0 1,0 l 0,-1.16992 1.47656,0 0,10.98828 -15.72852,0 0,-10.98828 z m 1.54883,2.61524 a 0.42188786,0.63569447 0 0 0 -0.42187,0.63476 l 0,0.67774 a 0.42188786,0.63569447 0 0 0 0.42187,0.63476 l 1.26953,0 a 0.42188786,0.63569447 0 0 0 0.42188,-0.63476 l 0,-0.67774 a 0.42188786,0.63569447 0 0 0 -0.42188,-0.63476 l -1.26953,0 z m 2.79297,0 a 0.42188786,0.63569447 0 0 0 -0.42188,0.63476 l 0,0.67774 a 0.42188786,0.63569447 0 0 0 0.42188,0.63476 l 1.27148,0 a 0.42188786,0.63569447 0 0 0 0.42188,-0.63476 l 0,-0.67774 a 0.42188786,0.63569447 0 0 0 -0.42188,-0.63476 l -1.27148,0 z m 2.79492,0 a 0.42188786,0.63569447 0 0 0 -0.42187,0.63476 l 0,0.67774 a 0.42188786,0.63569447 0 0 0 0.42187,0.63476 l 1.26953,0 a 0.42188786,0.63569447 0 0 0 0.42383,-0.63476 l 0,-0.67774 a 0.42188786,0.63569447 0 0 0 -0.42383,-0.63476 l -1.26953,0 z m 2.79492,0 a 0.42188786,0.63569447 0 0 0 -0.42187,0.63476 l 0,0.67774 a 0.42188786,0.63569447 0 0 0 0.42187,0.63476 l 1.27149,0 a 0.42188786,0.63569447 0 0 0 0.41992,-0.63476 l 0,-0.67774 a 0.42188786,0.63569447 0 0 0 -0.41992,-0.63476 l -1.27149,0 z m 2.79297,0 a 0.42188786,0.63569447 0 0 0 -0.41992,0.63476 l 0,0.67774 a 0.42188786,0.63569447 0 0 0 0.41992,0.63476 l 1.27149,0 a 0.42188786,0.63569447 0 0 0 0.42187,-0.63476 l 0,-0.67774 a 0.42188786,0.63569447 0 0 0 -0.42187,-0.63476 l -1.27149,0 z m -11.17578,2.62695 a 0.42188786,0.63569447 0 0 0 -0.42187,0.63476 l 0,0.67579 a 0.42188786,0.63569447 0 0 0 0.42187,0.63671 l 1.26953,0 a 0.42188786,0.63569447 0 0 0 0.42188,-0.63671 l 0,-0.67579 a 0.42188786,0.63569447 0 0 0 -0.42188,-0.63476 l -1.26953,0 z m 2.79297,0 a 0.42188786,0.63569447 0 0 0 -0.42188,0.63476 l 0,0.67579 a 0.42188786,0.63569447 0 0 0 0.42188,0.63671 l 1.27148,0 a 0.42188786,0.63569447 0 0 0 0.42188,-0.63671 l 0,-0.67579 a 0.42188786,0.63569447 0 0 0 -0.42188,-0.63476 l -1.27148,0 z m 2.79492,0 a 0.42188786,0.63569447 0 0 0 -0.42187,0.63476 l 0,0.67579 a 0.42188786,0.63569447 0 0 0 0.42187,0.63671 l 1.26953,0 a 0.42188786,0.63569447 0 0 0 0.42383,-0.63671 l 0,-0.67579 a 0.42188786,0.63569447 0 0 0 -0.42383,-0.63476 l -1.26953,0 z m 2.79492,0 a 0.42188786,0.63569447 0 0 0 -0.42187,0.63476 l 0,0.67579 a 0.42188786,0.63569447 0 0 0 0.42187,0.63671 l 1.27149,0 a 0.42188786,0.63569447 0 0 0 0.41992,-0.63671 l 0,-0.67579 a 0.42188786,0.63569447 0 0 0 -0.41992,-0.63476 l -1.27149,0 z m 2.79297,0 a 0.42188786,0.63569447 0 0 0 -0.41992,0.63476 l 0,0.67579 a 0.42188786,0.63569447 0 0 0 0.41992,0.63671 l 1.27149,0 a 0.42188786,0.63569447 0 0 0 0.42187,-0.63671 l 0,-0.67579 a 0.42188786,0.63569447 0 0 0 -0.42187,-0.63476 l -1.27149,0 z m -11.17578,2.625 a 0.42188782,0.63569441 0 0 0 -0.42187,0.63476 l 0,0.67774 a 0.42188782,0.63569441 0 0 0 0.42187,0.63476 l 1.26953,0 a 0.42188782,0.63569441 0 0 0 0.42188,-0.63476 l 0,-0.67774 a 0.42188782,0.63569441 0 0 0 -0.42188,-0.63476 l -1.26953,0 z m 2.79687,0 a 0.42188782,0.63569441 0 0 0 -0.41992,0.63476 l 0,0.67774 a 0.42188782,0.63569441 0 0 0 0.41992,0.63476 l 1.27149,0 a 0.42188782,0.63569441 0 0 0 0.42187,-0.63476 l 0,-0.67774 a 0.42188782,0.63569441 0 0 0 -0.42187,-0.63476 l -1.27149,0 z m 2.8379,0 a 0.42188782,0.63569441 0 0 0 -0.42188,0.63476 l 0,0.67774 a 0.42188782,0.63569441 0 0 0 0.42188,0.63476 l 1.26953,0 a 0.42188782,0.63569441 0 0 0 0.42187,-0.63476 l 0,-0.67774 a 0.42188782,0.63569441 0 0 0 -0.42187,-0.63476 l -1.26953,0 z m 2.79687,0 a 0.42188782,0.63569441 0 0 0 -0.42187,0.63476 l 0,0.67774 a 0.42188782,0.63569441 0 0 0 0.42187,0.63476 l 1.27149,0 a 0.42188782,0.63569441 0 0 0 0.42187,-0.63476 l 0,-0.67774 a 0.42188782,0.63569441 0 0 0 -0.42187,-0.63476 l -1.27149,0 z"
       id="rect4477" />
  </g>
</svg>
