<?xml version="1.0" encoding="UTF-8" standalone="no"?>
<!-- Created with Inkscape (http://www.inkscape.org/) -->

<svg
   xmlns:dc="http://purl.org/dc/elements/1.1/"
   xmlns:cc="http://creativecommons.org/ns#"
   xmlns:rdf="http://www.w3.org/1999/02/22-rdf-syntax-ns#"
   xmlns:svg="http://www.w3.org/2000/svg"
   xmlns="http://www.w3.org/2000/svg"
   xmlns:sodipodi="http://sodipodi.sourceforge.net/DTD/sodipodi-0.dtd"
   xmlns:inkscape="http://www.inkscape.org/namespaces/inkscape"
   width="4.5355415mm"
   height="5.0808783mm"
   viewBox="0 0 16.070816 18.003112"
   id="svg6576"
   version="1.1"
   inkscape:version="0.91 r13725"
   sodipodi:docname="exposure.svg">
  <defs
     id="defs6578" />
  <sodipodi:namedview
     id="base"
     pagecolor="#ffffff"
     bordercolor="#666666"
     borderopacity="1.0"
     inkscape:pageopacity="0.0"
     inkscape:pageshadow="2"
     inkscape:zoom="47.825067"
     inkscape:cx="8.0354044"
     inkscape:cy="9.0015556"
     inkscape:document-units="px"
     inkscape:current-layer="layer1"
     showgrid="false"
     fit-margin-top="0"
     fit-margin-left="0"
     fit-margin-right="0"
     fit-margin-bottom="0"
     inkscape:window-width="1920"
     inkscape:window-height="1011"
     inkscape:window-x="0"
     inkscape:window-y="21"
     inkscape:window-maximized="1" />
  <metadata
     id="metadata6581">
    <rdf:RDF>
      <cc:Work
         rdf:about="">
        <dc:format>image/svg+xml</dc:format>
        <dc:type
           rdf:resource="http://purl.org/dc/dcmitype/StillImage" />
        <dc:title />
      </cc:Work>
    </rdf:RDF>
  </metadata>
  <g
     inkscape:label="Layer 1"
     inkscape:groupmode="layer"
     id="layer1"
     transform="translate(-125.63088,-772.70717)">
    <path
       inkscape:connector-curvature="0"
       style="color:#000000;font-style:normal;font-variant:normal;font-weight:normal;font-stretch:normal;font-size:medium;line-height:normal;font-family:sans-serif;text-indent:0;text-align:start;text-decoration:none;text-decoration-line:none;text-decoration-style:solid;text-decoration-color:#000000;letter-spacing:normal;word-spacing:normal;text-transform:none;direction:ltr;block-progression:tb;writing-mode:lr-tb;baseline-shift:baseline;text-anchor:start;white-space:normal;clip-rule:nonzero;display:inline;overflow:visible;visibility:visible;opacity:1;isolation:auto;mix-blend-mode:normal;color-interpolation:sRGB;color-interpolation-filters:linearRGB;solid-color:#000000;solid-opacity:1;fill:#ffffff;fill-opacity:1;fill-rule:nonzero;stroke:none;stroke-width:1;stroke-linecap:round;stroke-linejoin:round;stroke-miterlimit:4;stroke-dasharray:none;stroke-dashoffset:0;stroke-opacity:1;color-rendering:auto;image-rendering:auto;shape-rendering:auto;text-rendering:auto;enable-background:accumulate"
       d="m 133.65895,772.70727 a 0.50005,0.50005 0 0 0 -0.0723,0.008 l -2.40625,0 a 0.50005,0.50005 0 1 0 0,1 l 1.98633,0 0,1.34375 a 0.50005,0.50005 0 0 0 0,0.16211 l 0,5.73828 c -0.74082,0.2217 -1.29492,0.90883 -1.29493,1.71484 1e-5,0.98019 0.81474,1.79688 1.79493,1.79688 0.98018,0 1.79687,-0.81669 1.79687,-1.79688 0,-0.80601 -0.55559,-1.49314 -1.29687,-1.71484 l 0,-5.29687 c 3.48241,0.24507 6.28781,3.01558 6.51953,6.55078 0.24274,3.70353 -2.42184,6.9511 -6.10157,7.43554 -3.67972,0.48445 -7.09233,-1.9614 -7.8164,-5.60156 -0.72407,-3.64015 1.49312,-7.20736 5.07812,-8.16797 a 0.50005,0.50005 0 0 0 -0.1289,-0.98437 l -4.4043,0 a 0.50005,0.50005 0 1 0 0,1 l 2.04687,0 c -2.72915,1.73556 -4.23596,5.01891 -3.57421,8.3457 0.82498,4.1475 4.7371,6.95235 8.92968,6.40039 4.19258,-0.55196 7.24533,-4.27248 6.96875,-8.49219 -0.26553,-4.05132 -3.51629,-7.23786 -7.51757,-7.48632 l 0,-0.94727 2.00781,0 a 0.50005,0.50005 0 1 0 0,-1 l -2.41602,0 a 0.50005,0.50005 0 0 0 -0.0996,-0.008 z"
       id="circle4366" />
  </g>
</svg>
