<?xml version="1.0" encoding="UTF-8" standalone="no"?>
<!-- Created with Inkscape (http://www.inkscape.org/) -->

<svg
   xmlns:dc="http://purl.org/dc/elements/1.1/"
   xmlns:cc="http://creativecommons.org/ns#"
   xmlns:rdf="http://www.w3.org/1999/02/22-rdf-syntax-ns#"
   xmlns:svg="http://www.w3.org/2000/svg"
   xmlns="http://www.w3.org/2000/svg"
   xmlns:sodipodi="http://sodipodi.sourceforge.net/DTD/sodipodi-0.dtd"
   xmlns:inkscape="http://www.inkscape.org/namespaces/inkscape"
   width="5.740355mm"
   height="4.1291537mm"
   viewBox="0 0 20.339841 14.63086"
   id="svg4818"
   version="1.1"
   inkscape:version="0.91 r13725"
   sodipodi:docname="iso.svg">
  <defs
     id="defs4820" />
  <sodipodi:namedview
     id="base"
     pagecolor="#ffffff"
     bordercolor="#666666"
     borderopacity="1.0"
     inkscape:pageopacity="0.0"
     inkscape:pageshadow="2"
     inkscape:zoom="63.707868"
     inkscape:cx="7.4543989"
     inkscape:cy="7.3154282"
     inkscape:document-units="px"
     inkscape:current-layer="layer1"
     showgrid="false"
     fit-margin-top="0"
     fit-margin-left="0"
     fit-margin-right="0"
     fit-margin-bottom="0"
     inkscape:window-width="1920"
     inkscape:window-height="1011"
     inkscape:window-x="0"
     inkscape:window-y="21"
     inkscape:window-maximized="1" />
  <metadata
     id="metadata4823">
    <rdf:RDF>
      <cc:Work
         rdf:about="">
        <dc:format>image/svg+xml</dc:format>
        <dc:type
           rdf:resource="http://purl.org/dc/dcmitype/StillImage" />
        <dc:title />
      </cc:Work>
    </rdf:RDF>
  </metadata>
  <g
     inkscape:label="Layer 1"
     inkscape:groupmode="layer"
     id="layer1"
     transform="translate(-56.248111,-354.29925)">
    <g
       style="font-style:normal;font-weight:normal;font-size:40px;line-height:125%;font-family:sans-serif;letter-spacing:0px;word-spacing:0px;fill:#ffffff;fill-opacity:1;stroke:none;stroke-width:1px;stroke-linecap:butt;stroke-linejoin:miter;stroke-opacity:1"
       id="flowRoot4333"
       transform="matrix(0.3172408,0,0,0.3172408,-3.7709907,290.2326)">
      <path
         inkscape:connector-curvature="0"
         style="font-style:normal;font-variant:normal;font-weight:normal;font-stretch:normal;font-size:40px;line-height:125%;font-family:'Ubuntu Condensed';-inkscape-font-specification:'Ubuntu Condensed, Normal';text-align:start;writing-mode:lr-tb;text-anchor:start;fill:#ffffff"
         d="m 162.77344,195.70703 a 0.50005,0.50005 0 0 0 -0.5,0.5 l 0,13.63086 a 0.50005,0.50005 0 0 0 0.5,0.5 l 19.33984,0 a 0.50005,0.50005 0 0 0 0.5,-0.5 l 0,-13.63086 a 0.50005,0.50005 0 0 0 -0.5,-0.5 l -19.33984,0 z m 0.5,1 18.33984,0 0,12.63086 -18.33984,0 0,-12.63086 z m 7.10547,1.72266 c -0.34685,0 -0.67202,0.0541 -0.97657,0.16406 -0.29609,0.10998 -0.55543,0.26572 -0.77539,0.46875 -0.21149,0.20303 -0.37896,0.4487 -0.50586,0.73633 -0.11843,0.28763 -0.17773,0.60953 -0.17773,0.96484 0,0.36377 0.0541,0.68046 0.16406,0.95117 0.10998,0.27072 0.24878,0.50791 0.41797,0.71094 0.17766,0.20304 0.37249,0.38093 0.58399,0.5332 0.21149,0.15228 0.4148,0.29629 0.60937,0.43164 0.1692,0.11844 0.33536,0.23704 0.49609,0.35547 0.16074,0.11844 0.29954,0.24877 0.41797,0.39258 0.1269,0.14382 0.22855,0.30477 0.30469,0.48242 0.0761,0.17766 0.11328,0.38097 0.11328,0.60938 0,0.43145 -0.12707,0.77355 -0.38086,1.02734 -0.24533,0.2538 -0.59591,0.38086 -1.05273,0.38086 -0.30455,0 -0.57563,-0.0371 -0.8125,-0.11328 -0.22842,-0.0846 -0.45192,-0.19472 -0.67188,-0.33008 l -0.35547,0.91407 c 0.23688,0.15227 0.50795,0.27413 0.8125,0.36718 0.30455,0.0931 0.66034,0.13867 1.06641,0.13867 0.43991,0 0.81915,-0.0625 1.14063,-0.18945 0.32993,-0.13535 0.601,-0.31325 0.8125,-0.5332 0.21995,-0.22842 0.3809,-0.49102 0.48242,-0.78711 0.10151,-0.29609 0.15234,-0.60952 0.15234,-0.93945 0,-0.36377 -0.0541,-0.67525 -0.16406,-0.9375 -0.10152,-0.27072 -0.23706,-0.50465 -0.40625,-0.69922 -0.16074,-0.20304 -0.34384,-0.38093 -0.54688,-0.53321 -0.20303,-0.15227 -0.40113,-0.29107 -0.5957,-0.41797 -0.19457,-0.12689 -0.38094,-0.24875 -0.55859,-0.36718 -0.1692,-0.11844 -0.32168,-0.25072 -0.45704,-0.39453 -0.12689,-0.14382 -0.2318,-0.30477 -0.3164,-0.48243 -0.0761,-0.17765 -0.11524,-0.38422 -0.11524,-0.62109 0,-0.43145 0.12381,-0.75661 0.36914,-0.97656 0.2538,-0.22842 0.58743,-0.34375 1.00196,-0.34375 0.22841,0 0.44345,0.0339 0.64648,0.10156 0.2115,0.0592 0.40633,0.14914 0.58399,0.26758 l 0.35547,-0.90234 c -0.19458,-0.11844 -0.43503,-0.21814 -0.72266,-0.30274 -0.28763,-0.0846 -0.60106,-0.12695 -0.93945,-0.12695 z m 6.13086,0 c -0.53297,0 -0.99888,0.11338 -1.39649,0.34179 -0.38915,0.21996 -0.71431,0.53339 -0.97656,0.93946 -0.25379,0.39761 -0.44342,0.87851 -0.57031,1.44531 -0.1269,0.5668 -0.19141,1.19367 -0.19141,1.87891 0,0.68524 0.0645,1.3121 0.19141,1.8789 0.12689,0.55835 0.31652,1.03925 0.57031,1.44532 0.26225,0.3976 0.58741,0.70778 0.97656,0.92773 0.39761,0.21995 0.86352,0.32812 1.39649,0.32812 0.53296,0 0.99366,-0.10817 1.38281,-0.32812 0.39761,-0.21995 0.72472,-0.53013 0.97851,-0.92773 0.26226,-0.40607 0.45188,-0.88697 0.57032,-1.44532 0.12689,-0.5668 0.18945,-1.19366 0.18945,-1.8789 0,-0.68524 -0.0626,-1.31211 -0.18945,-1.87891 -0.11844,-0.5668 -0.30806,-1.0477 -0.57032,-1.44531 -0.25379,-0.40607 -0.5809,-0.7195 -0.97851,-0.93946 -0.38915,-0.22841 -0.84985,-0.34179 -1.38281,-0.34179 z m -11.25586,0.20117 0,8.79492 1.14257,0 0,-8.79492 -1.14257,0 z m 11.25586,0.80078 c 0.34685,0 0.63812,0.088 0.875,0.26563 0.24533,0.17765 0.44538,0.42852 0.59765,0.75 0.15228,0.31301 0.2624,0.68899 0.33008,1.1289 0.0677,0.43991 0.10156,0.92602 0.10156,1.45899 0,0.53296 -0.0339,1.01907 -0.10156,1.45898 -0.0677,0.43991 -0.1778,0.8159 -0.33008,1.12891 -0.15227,0.31301 -0.35232,0.55867 -0.59765,0.73633 -0.23688,0.16919 -0.52815,0.2539 -0.875,0.2539 -0.34685,0 -0.64334,-0.0847 -0.88868,-0.2539 -0.23687,-0.17766 -0.43171,-0.42332 -0.58398,-0.73633 -0.15228,-0.31301 -0.26566,-0.689 -0.3418,-1.12891 -0.0677,-0.43991 -0.10156,-0.92602 -0.10156,-1.45898 0,-0.53297 0.0339,-1.01908 0.10156,-1.45899 0.0761,-0.43991 0.18952,-0.81589 0.3418,-1.1289 0.15227,-0.32148 0.34711,-0.57235 0.58398,-0.75 0.24534,-0.17766 0.54183,-0.26563 0.88868,-0.26563 z"
         transform="matrix(3.1521797,0,0,3.1521797,-322.32405,-414.95413)"
         id="path4342" />
    </g>
  </g>
</svg>
