<?xml version="1.0" encoding="UTF-8" standalone="no"?>
<!-- Created with Inkscape (http://www.inkscape.org/) -->

<svg
   xmlns:dc="http://purl.org/dc/elements/1.1/"
   xmlns:cc="http://creativecommons.org/ns#"
   xmlns:rdf="http://www.w3.org/1999/02/22-rdf-syntax-ns#"
   xmlns:svg="http://www.w3.org/2000/svg"
   xmlns="http://www.w3.org/2000/svg"
   xmlns:sodipodi="http://sodipodi.sourceforge.net/DTD/sodipodi-0.dtd"
   xmlns:inkscape="http://www.inkscape.org/namespaces/inkscape"
   width="5.558454mm"
   height="4.0815248mm"
   viewBox="0 0 19.69531 14.462096"
   id="svg5412"
   version="1.1"
   inkscape:version="0.91 r13725"
   sodipodi:docname="length.svg">
  <defs
     id="defs5414" />
  <sodipodi:namedview
     id="base"
     pagecolor="#ffffff"
     bordercolor="#666666"
     borderopacity="1.0"
     inkscape:pageopacity="0.0"
     inkscape:pageshadow="2"
     inkscape:zoom="54.073794"
     inkscape:cx="9.8476538"
     inkscape:cy="7.2310438"
     inkscape:document-units="px"
     inkscape:current-layer="layer1"
     showgrid="false"
     fit-margin-top="0"
     fit-margin-left="0"
     fit-margin-right="0"
     fit-margin-bottom="0"
     inkscape:window-width="1920"
     inkscape:window-height="1011"
     inkscape:window-x="0"
     inkscape:window-y="21"
     inkscape:window-maximized="1" />
  <metadata
     id="metadata5417">
    <rdf:RDF>
      <cc:Work
         rdf:about="">
        <dc:format>image/svg+xml</dc:format>
        <dc:type
           rdf:resource="http://purl.org/dc/dcmitype/StillImage" />
        <dc:title />
      </cc:Work>
    </rdf:RDF>
  </metadata>
  <g
     inkscape:label="Layer 1"
     inkscape:groupmode="layer"
     id="layer1"
     transform="translate(-67.363307,-652.43454)">
    <path
       inkscape:connector-curvature="0"
       style="color:#000000;font-style:normal;font-variant:normal;font-weight:normal;font-stretch:normal;font-size:medium;line-height:normal;font-family:sans-serif;text-indent:0;text-align:start;text-decoration:none;text-decoration-line:none;text-decoration-style:solid;text-decoration-color:#000000;letter-spacing:normal;word-spacing:normal;text-transform:none;direction:ltr;block-progression:tb;writing-mode:lr-tb;baseline-shift:baseline;text-anchor:start;white-space:normal;clip-rule:nonzero;display:inline;overflow:visible;visibility:visible;opacity:1;isolation:auto;mix-blend-mode:normal;color-interpolation:sRGB;color-interpolation-filters:linearRGB;solid-color:#000000;solid-opacity:1;fill:#ffffff;fill-opacity:1;fill-rule:evenodd;stroke:none;stroke-width:1;stroke-linecap:butt;stroke-linejoin:round;stroke-miterlimit:4;stroke-dasharray:none;stroke-dashoffset:0;stroke-opacity:1;color-rendering:auto;image-rendering:auto;shape-rendering:auto;text-rendering:auto;enable-background:accumulate"
       d="m 73.398467,652.43456 c -1.56432,0.0267 -2.44656,0.65521 -3.13868,1.20703 -0.69211,0.55183 -1.19524,1.00965 -2.43164,1.09766 a 0.50005,0.50005 0 0 0 -0.46484,0.49805 l 0,4.71679 a 0.50005,0.50005 0 0 0 0.5,0.5 l 18.69531,0 a 0.50005,0.50005 0 0 0 0.5,-0.5 l 0,-4.71679 a 0.50005,0.50005 0 0 0 -0.125,-0.33008 c -1.28474,-1.45314 -3.50613,-2.47266 -5.41992,-2.47266 l -8.10742,0 a 0.50005,0.50005 0 0 0 -0.008,0 z m 0.0156,1 8.09961,0 c 1.48658,0 3.47408,0.91405 4.54492,2.04492 l 0,3.97461 -17.69531,0 0,-3.8457 c 1.15272,-0.20882 1.931,-0.71631 2.51953,-1.18555 0.67592,-0.53891 1.20446,-0.96562 2.53125,-0.98828 z m -0.82812,1.32227 a 0.50005,0.50005 0 1 0 0,1 l 9.8457,0 a 0.50005,0.50005 0 1 0 0,-1 l -9.8457,0 z m 0,2.30273 a 0.50005,0.50005 0 1 0 0,1 l 9.8457,0 a 0.50005,0.50005 0 1 0 0,-1 l -9.8457,0 z m -4.72266,5.94531 a 0.50005,0.50005 0 0 0 -0.25,0.93164 l 4.99219,2.88282 a 0.50005,0.50005 0 1 0 0.5,-0.86524 l -3.375,-1.94922 14.96093,0 -3.36523,1.94336 a 0.50050437,0.50050437 0 1 0 0.5,0.86719 l 4.98242,-2.87891 a 0.50005,0.50005 0 0 0 -0.25,-0.93164 l -18.69531,0 z"
       id="path4151" />
  </g>
</svg>
