<?xml version="1.0" encoding="UTF-8" standalone="no"?>
<!-- Created with Inkscape (http://www.inkscape.org/) -->

<svg
   xmlns:dc="http://purl.org/dc/elements/1.1/"
   xmlns:cc="http://creativecommons.org/ns#"
   xmlns:rdf="http://www.w3.org/1999/02/22-rdf-syntax-ns#"
   xmlns:svg="http://www.w3.org/2000/svg"
   xmlns="http://www.w3.org/2000/svg"
   xmlns:sodipodi="http://sodipodi.sourceforge.net/DTD/sodipodi-0.dtd"
   xmlns:inkscape="http://www.inkscape.org/namespaces/inkscape"
   width="4.8236856mm"
   height="4.5681043mm"
   viewBox="0 0 17.0918 16.186196"
   id="svg7158"
   version="1.1"
   inkscape:version="0.91 r13725"
   sodipodi:docname="mode.svg">
  <defs
     id="defs7160" />
  <sodipodi:namedview
     id="base"
     pagecolor="#ffffff"
     bordercolor="#666666"
     borderopacity="1.0"
     inkscape:pageopacity="0.0"
     inkscape:pageshadow="2"
     inkscape:zoom="53.193478"
     inkscape:cx="8.545899"
     inkscape:cy="8.0931021"
     inkscape:document-units="px"
     inkscape:current-layer="layer1"
     showgrid="false"
     inkscape:window-width="1920"
     inkscape:window-height="1011"
     inkscape:window-x="0"
     inkscape:window-y="21"
     inkscape:window-maximized="1"
     fit-margin-top="0"
     fit-margin-left="0"
     fit-margin-right="0"
     fit-margin-bottom="0" />
  <metadata
     id="metadata7163">
    <rdf:RDF>
      <cc:Work
         rdf:about="">
        <dc:format>image/svg+xml</dc:format>
        <dc:type
           rdf:resource="http://purl.org/dc/dcmitype/StillImage" />
        <dc:title />
      </cc:Work>
    </rdf:RDF>
  </metadata>
  <g
     inkscape:label="Layer 1"
     inkscape:groupmode="layer"
     id="layer1"
     transform="translate(-105.19498,-478.88562)">
    <path
       inkscape:connector-curvature="0"
       style="color:#000000;font-style:normal;font-variant:normal;font-weight:normal;font-stretch:normal;font-size:medium;line-height:normal;font-family:sans-serif;text-indent:0;text-align:start;text-decoration:none;text-decoration-line:none;text-decoration-style:solid;text-decoration-color:#000000;letter-spacing:normal;word-spacing:normal;text-transform:none;direction:ltr;block-progression:tb;writing-mode:lr-tb;baseline-shift:baseline;text-anchor:start;white-space:normal;clip-rule:nonzero;display:inline;overflow:visible;visibility:visible;opacity:1;isolation:auto;mix-blend-mode:normal;color-interpolation:sRGB;color-interpolation-filters:linearRGB;solid-color:#000000;solid-opacity:1;fill:#ffffff;fill-opacity:1;fill-rule:evenodd;stroke:none;stroke-width:1.74046516;stroke-linecap:round;stroke-linejoin:miter;stroke-miterlimit:4;stroke-dasharray:none;stroke-dashoffset:0;stroke-opacity:1;color-rendering:auto;image-rendering:auto;shape-rendering:auto;text-rendering:auto;enable-background:accumulate"
       d="m 107.78873,478.88574 c -0.48052,0.007 -0.86437,0.40228 -0.85742,0.88281 l 0,8.59766 c -1.00633,0.36211 -1.73633,1.31879 -1.73633,2.44531 1e-5,1.12653 0.73,2.08177 1.73633,2.44336 l 0,0.92774 c -0.0257,1.18559 1.76594,1.18559 1.74023,0 l 0,-0.92579 c 1.00753,-0.36094 1.7383,-1.31792 1.73828,-2.44531 2e-5,-1.12738 -0.73075,-2.0858 -1.73828,-2.44726 l 0,-1.03711 0,-7.5586 c 0.007,-0.49047 -0.39234,-0.8899 -0.88281,-0.88281 z m 5.93945,0 c -0.48052,0.007 -0.86437,0.40228 -0.85742,0.88281 l 0,0.51172 c -1.00752,0.36146 -1.73828,1.31988 -1.73828,2.44727 0,1.12738 0.73076,2.0858 1.73828,2.44726 l 0,9.00782 c -0.0254,1.18528 1.76563,1.18528 1.74024,0 l 0,-9.00977 c 1.00633,-0.36211 1.73634,-1.31879 1.73632,-2.44531 0,-1.12653 -0.72999,-2.08321 -1.73632,-2.44531 l 0,-0.51368 c 0.007,-0.49047 -0.39235,-0.88991 -0.88282,-0.88281 z m 5.9375,0 c -0.48052,0.007 -0.86437,0.40228 -0.85742,0.88281 l 0,4.76172 c -1.00633,0.36211 -1.73633,1.31879 -1.73633,2.44531 0,1.12653 0.73,2.08321 1.73633,2.44532 l 0,4.76172 c 0,1.16146 1.74219,1.16146 1.74219,0 l 0,-4.76172 c 1.00633,-0.36211 1.73633,-1.31879 1.73633,-2.44532 0,-1.12652 -0.73,-2.0832 -1.73633,-2.44531 l 0,-4.76172 c 0.007,-0.49125 -0.39354,-0.89102 -0.88477,-0.88281 z m -5.92578,2.33789 c 0.83735,0 1.50586,0.66656 1.50586,1.50391 0,0.83734 -0.66851,1.5039 -1.50586,1.5039 -0.83734,0 -1.5039,-0.66656 -1.5039,-1.5039 0,-0.83735 0.66656,-1.50391 1.5039,-1.50391 z m 5.93946,4.24805 c 0.83734,0 1.5039,0.66656 1.5039,1.5039 0,0.83735 -0.66656,1.50391 -1.5039,1.50391 -0.83735,0 -1.50391,-0.66656 -1.50391,-1.50391 0,-0.83734 0.66656,-1.5039 1.50391,-1.5039 z m -11.87696,3.83398 c 0.83735,0 1.50391,0.66852 1.50391,1.50586 0,0.83734 -0.66656,1.50391 -1.50391,1.50391 -0.83734,0 -1.5039,-0.66657 -1.5039,-1.50391 0,-0.83734 0.66656,-1.50586 1.5039,-1.50586 z"
       id="path4380" />
  </g>
</svg>
