<svg xmlns="http://www.w3.org/2000/svg" width="18.221" height="18.219" viewBox="0 0 17.082 17.08"><path style="line-height:normal;text-indent:0;text-align:start;text-decoration-line:none;text-decoration-style:solid;text-decoration-color:#000;text-transform:none;block-progression:tb;isolation:auto;mix-blend-mode:normal" d="M8.541 0C3.831 0 0 3.83 0 8.541c0 4.71 3.83 8.54 8.541 8.54 4.71 0 8.541-3.83 8.541-8.54 0-4.71-3.83-8.541-8.541-8.541zm0 1c.689 0 1.353.1 1.986.271L5.672 6.475l-.678-4.592A7.518 7.518 0 0 1 8.541 1zm3.02.63a7.55 7.55 0 0 1 3.91 3.934l-7.067-.552 3.157-3.381zm-7.49.845L5.112 9.52 1.125 7.203A7.519 7.519 0 0 1 4.07 2.475zm3.46 3.474l2.444.19 1.373 2.027-.729 2.34-2.283.889-2.12-1.23L5.86 7.74l1.672-1.79zm3.719.29l4.57.355a7.51 7.51 0 0 1-.615 5.48L11.25 6.238zM1.012 8.292l6.133 3.564-4.264 1.659A7.504 7.504 0 0 1 1 8.54c0-.084.009-.165.012-.248zm11.054.934l2.553 3.767a7.52 7.52 0 0 1-4.644 2.947l2.091-6.714zm-1.828 2.502l-1.35 4.334c-.115.005-.23.017-.347.017a7.509 7.509 0 0 1-4.88-1.793l6.577-2.558z" color="#000" font-weight="400" font-family="sans-serif" white-space="normal" overflow="visible" fill="#fff"/></svg>