<svg xmlns="http://www.w3.org/2000/svg" width="18.4" height="15.377" viewBox="0 0 17.25 14.416"><path style="line-height:normal;text-indent:0;text-align:start;text-decoration-line:none;text-decoration-style:solid;text-decoration-color:#000;text-transform:none;block-progression:tb;isolation:auto;mix-blend-mode:normal" d="M9.002 0a.5.5 0 0 0-.434.25l-1.25 2.166h-4.47A2.852 2.852 0 0 0 0 5.264v6.304a2.852 2.852 0 0 0 2.848 2.848h11.554a2.852 2.852 0 0 0 2.848-2.848V5.264a2.852 2.852 0 0 0-2.848-2.848h-1.006L12.146.25a.5.5 0 0 0-.433-.25H9.002zM3.934 4.354a.5.5 0 0 1 .505.507v7.625a.5.5 0 1 1-1 0V4.861a.5.5 0 0 1 .495-.507zm6.423.605a3.449 3.449 0 0 1 3.457 3.457 3.449 3.449 0 0 1-3.457 3.457A3.449 3.449 0 0 1 6.9 8.416a3.449 3.449 0 0 1 3.457-3.457z" color="#000" font-weight="400" font-family="sans-serif" white-space="normal" overflow="visible" fill="#fff"/></svg>