<svg xmlns="http://www.w3.org/2000/svg" width="17.848" height="15.455" viewBox="0 0 16.732 14.489"><path style="line-height:normal;text-indent:0;text-align:start;text-decoration-line:none;text-decoration-style:solid;text-decoration-color:#000;text-transform:none;block-progression:tb;isolation:auto;mix-blend-mode:normal" d="M14.61 0a.111.111 0 0 0-.089.047l-3.47 5.04-3.469 5.039a.11.11 0 0 0-.016.08 1.022 1.022 0 0 1 .002.001l.312 1.702c.012.054.07.096.125.086l-.002.002 1.702-.314a.11.11 0 0 0 .07-.046l6.94-10.077a.11.11 0 0 0-.027-.148L14.672.022a.109.109 0 0 0-.061-.02V0zM.396 2.401A.393.393 0 0 0 0 2.793v11.304c0 .217.177.392.395.392h13.678a.393.393 0 0 0 .396-.392V6.06l-1.327 1.926v5.283H1.327V3.621h9.88l.842-1.22H.395zM2.93 5.262a.649.649 0 1 0 0 1.298h1.813a.649.649 0 1 0 0-1.298H2.929zm4.079 0a.649.649 0 1 0 0 1.298h2.177l.893-1.298h-3.07zm-4.08 2.533a.649.649 0 1 0 0 1.298h4.08a.649.649 0 1 0 0-1.298h-4.08zm0 2.534a.649.649 0 1 0 0 1.297h4.183l-.238-1.29a.811.811 0 0 1-.002-.008H2.928z" color="#000" font-weight="400" font-family="sans-serif" white-space="normal" overflow="visible" fill="#fff"/></svg>