<svg xmlns="http://www.w3.org/2000/svg" width="18.91" height="15.646" viewBox="0 0 17.729 14.668"><path style="line-height:normal;text-indent:0;text-align:start;text-decoration-line:none;text-decoration-style:solid;text-decoration-color:#000;text-transform:none;block-progression:tb;isolation:auto;mix-blend-mode:normal" d="M2.969 0a.5.5 0 0 0-.492.508V1.68H.5a.5.5 0 0 0-.5.5v11.988a.5.5 0 0 0 .5.5h16.729a.5.5 0 0 0 .5-.5V2.18a.5.5 0 0 0-.5-.5h-1.977V.508A.5.5 0 0 0 14.746 0a.5.5 0 0 0-.494.508V1.68h-1V.508A.5.5 0 0 0 12.746 0a.5.5 0 0 0-.494.508V1.68H5.477V.508A.5.5 0 0 0 4.969 0a.5.5 0 0 0-.492.508V1.68h-1V.508A.5.5 0 0 0 2.969 0zM1 2.68h1.477v1.17a.5.5 0 1 0 1 0V2.68h1v1.17a.5.5 0 1 0 1 0V2.68h6.775v1.17a.5.5 0 1 0 1 0V2.68h1v1.17a.5.5 0 1 0 1 0V2.68h1.477v10.988H1V2.68zm1.549 2.615a.422.636 0 0 0-.422.635v.677a.422.636 0 0 0 .422.635h1.27a.422.636 0 0 0 .421-.635V5.93a.422.636 0 0 0-.422-.635h-1.27zm2.793 0a.422.636 0 0 0-.422.635v.677a.422.636 0 0 0 .422.635h1.271a.422.636 0 0 0 .422-.635V5.93a.422.636 0 0 0-.422-.635H5.342zm2.795 0a.422.636 0 0 0-.422.635v.677a.422.636 0 0 0 .422.635h1.27a.422.636 0 0 0 .423-.635V5.93a.422.636 0 0 0-.424-.635h-1.27zm2.795 0a.422.636 0 0 0-.422.635v.677a.422.636 0 0 0 .422.635h1.271a.422.636 0 0 0 .42-.635V5.93a.422.636 0 0 0-.42-.635h-1.271zm2.793 0a.422.636 0 0 0-.42.635v.677a.422.636 0 0 0 .42.635h1.271a.422.636 0 0 0 .422-.635V5.93a.422.636 0 0 0-.422-.635h-1.271zM2.549 7.922a.422.636 0 0 0-.422.635v.675a.422.636 0 0 0 .422.637h1.27a.422.636 0 0 0 .421-.637v-.675a.422.636 0 0 0-.422-.635h-1.27zm2.793 0a.422.636 0 0 0-.422.635v.675a.422.636 0 0 0 .422.637h1.271a.422.636 0 0 0 .422-.637v-.675a.422.636 0 0 0-.422-.635H5.342zm2.795 0a.422.636 0 0 0-.422.635v.675a.422.636 0 0 0 .422.637h1.27a.422.636 0 0 0 .423-.637v-.675a.422.636 0 0 0-.424-.635h-1.27zm2.795 0a.422.636 0 0 0-.422.635v.675a.422.636 0 0 0 .422.637h1.271a.422.636 0 0 0 .42-.637v-.675a.422.636 0 0 0-.42-.635h-1.271zm2.793 0a.422.636 0 0 0-.42.635v.675a.422.636 0 0 0 .42.637h1.271a.422.636 0 0 0 .422-.637v-.675a.422.636 0 0 0-.422-.635h-1.271zM2.549 10.547a.422.636 0 0 0-.422.635v.677a.422.636 0 0 0 .422.635h1.27a.422.636 0 0 0 .421-.635v-.677a.422.636 0 0 0-.422-.635h-1.27zm2.797 0a.422.636 0 0 0-.42.635v.677a.422.636 0 0 0 .42.635h1.271a.422.636 0 0 0 .422-.635v-.677a.422.636 0 0 0-.422-.635H5.346zm2.838 0a.422.636 0 0 0-.422.635v.677a.422.636 0 0 0 .422.635h1.27a.422.636 0 0 0 .421-.635v-.677a.422.636 0 0 0-.422-.635h-1.27zm2.796 0a.422.636 0 0 0-.421.635v.677a.422.636 0 0 0 .421.635h1.272a.422.636 0 0 0 .422-.635v-.677a.422.636 0 0 0-.422-.635H10.98z" color="#000" font-weight="400" font-family="sans-serif" white-space="normal" overflow="visible" fill="#fff"/></svg>