<svg xmlns="http://www.w3.org/2000/svg" width="17.142" height="19.203" viewBox="0 0 16.071 18.003"><path style="line-height:normal;text-indent:0;text-align:start;text-decoration-line:none;text-decoration-style:solid;text-decoration-color:#000;text-transform:none;block-progression:tb;isolation:auto;mix-blend-mode:normal" d="M8.028 0a.5.5 0 0 0-.072.008H5.55a.5.5 0 1 0 0 1h1.986v1.344a.5.5 0 0 0 0 .162v5.738c-.741.222-1.295.91-1.295 1.715 0 .98.815 1.797 1.795 1.797s1.797-.817 1.797-1.797c0-.806-.556-1.493-1.297-1.715V2.955a7.023 7.023 0 0 1 6.52 6.551 7.029 7.029 0 0 1-6.102 7.436 7.026 7.026 0 0 1-7.817-5.602 7.028 7.028 0 0 1 5.079-8.168.5.5 0 0 0-.13-.984H1.683a.5.5 0 1 0 0 1H3.73C1 4.923-.507 8.207.155 11.533a8.043 8.043 0 0 0 8.93 6.4 8.042 8.042 0 0 0 6.968-8.491c-.265-4.052-3.516-7.238-7.517-7.487v-.947h2.008a.5.5 0 1 0 0-1H8.128a.5.5 0 0 0-.1-.008z" color="#000" font-weight="400" font-family="sans-serif" white-space="normal" overflow="visible" fill="#fff"/></svg>