<svg xmlns="http://www.w3.org/2000/svg" width="21.696" height="15.606" viewBox="0 0 20.34 14.631"><g style="line-height:125%"><path style="line-height:125%;-inkscape-font-specification:'Ubuntu Condensed, Normal';text-align:start" d="M.5 0a.5.5 0 0 0-.5.5v13.63a.5.5 0 0 0 .5.5h19.34a.5.5 0 0 0 .5-.5V.5a.5.5 0 0 0-.5-.5H.5zM1 1h18.34v12.63H1V1zm7.105 1.723c-.346 0-.672.054-.976.164a2.31 2.31 0 0 0-.775.468 2.283 2.283 0 0 0-.506.737c-.119.287-.178.61-.178.965 0 .363.054.68.164.95.11.272.249.509.418.712.178.203.372.38.584.533.211.152.415.296.61.432.169.118.335.237.495.355.161.119.3.249.418.393.127.143.229.304.305.482.076.178.113.381.113.61 0 .43-.127.773-.38 1.027-.246.254-.596.38-1.053.38-.305 0-.576-.036-.813-.113a3.798 3.798 0 0 1-.672-.33l-.355.914c.237.153.508.274.812.368.305.093.66.138 1.067.138.44 0 .819-.062 1.14-.19a2.34 2.34 0 0 0 .813-.532c.22-.229.38-.491.482-.788.102-.296.153-.61.153-.939 0-.364-.054-.675-.164-.938a2.269 2.269 0 0 0-.407-.699 2.964 2.964 0 0 0-.546-.533 11.093 11.093 0 0 0-.596-.418l-.559-.367a2.948 2.948 0 0 1-.457-.395 2.068 2.068 0 0 1-.316-.482 1.565 1.565 0 0 1-.115-.621c0-.432.123-.757.369-.977.253-.228.587-.343 1.002-.343.228 0 .443.033.646.101.212.06.406.15.584.268l.356-.903a3.319 3.319 0 0 0-1.662-.43zm6.131 0c-.533 0-.999.113-1.396.341a2.8 2.8 0 0 0-.977.94c-.254.398-.443.878-.57 1.445a8.611 8.611 0 0 0-.191 1.88c0 .684.064 1.311.191 1.878a4.65 4.65 0 0 0 .57 1.445c.263.398.588.708.977.928.397.22.863.328 1.396.328.533 0 .994-.108 1.383-.328a2.7 2.7 0 0 0 .979-.928 4.27 4.27 0 0 0 .57-1.445c.127-.567.19-1.194.19-1.879a8.62 8.62 0 0 0-.19-1.879c-.118-.567-.308-1.047-.57-1.445a2.666 2.666 0 0 0-.979-.94c-.389-.228-.85-.341-1.383-.341zm-11.256.2v8.796h1.143V2.924H2.98zm11.256.802c.347 0 .638.088.875.265.246.178.446.429.598.75.152.313.262.69.33 1.13.068.44.102.925.102 1.458 0 .533-.034 1.02-.102 1.46a3.976 3.976 0 0 1-.33 1.128 1.93 1.93 0 0 1-.598.736c-.237.17-.528.254-.875.254s-.643-.084-.888-.254a1.982 1.982 0 0 1-.584-.736 4.233 4.233 0 0 1-.342-1.129 9.63 9.63 0 0 1-.102-1.459c0-.533.034-1.019.102-1.459.076-.44.19-.816.342-1.129.152-.321.347-.572.584-.75.245-.177.541-.265.888-.265z" font-family="Ubuntu Condensed" font-weight="400" font-size="40" letter-spacing="0" word-spacing="0" fill="#fff"/></g></svg>