<svg xmlns="http://www.w3.org/2000/svg" width="21.008" height="15.426" viewBox="0 0 19.695 14.462"><path style="line-height:normal;text-indent:0;text-align:start;text-decoration-line:none;text-decoration-style:solid;text-decoration-color:#000;text-transform:none;block-progression:tb;isolation:auto;mix-blend-mode:normal" d="M6.035 0C4.471.027 3.59.655 2.896 1.207c-.692.552-1.195 1.01-2.431 1.098A.5.5 0 0 0 0 2.803V7.52a.5.5 0 0 0 .5.5h18.695a.5.5 0 0 0 .5-.5V2.803a.5.5 0 0 0-.125-.33C18.286 1.02 16.064 0 14.15 0H6.043a.5.5 0 0 0-.008 0zm.016 1h8.1c1.486 0 3.473.914 4.544 2.045V7.02H1V3.174c1.153-.209 1.931-.716 2.52-1.186.675-.539 1.204-.965 2.53-.988zm-.828 1.322a.5.5 0 1 0 0 1h9.845a.5.5 0 1 0 0-1H5.223zm0 2.303a.5.5 0 1 0 0 1h9.845a.5.5 0 1 0 0-1H5.223zM.5 10.57a.5.5 0 0 0-.25.932l4.992 2.883a.5.5 0 1 0 .5-.865l-3.375-1.95h14.961l-3.365 1.944a.5.5 0 1 0 .5.867l4.982-2.879a.5.5 0 0 0-.25-.932H.5z" color="#000" font-weight="400" font-family="sans-serif" white-space="normal" overflow="visible" fill="#fff" fill-rule="evenodd"/></svg>