<svg xmlns="http://www.w3.org/2000/svg" width="18.231" height="17.265" viewBox="0 0 17.092 16.186"><path style="line-height:normal;text-indent:0;text-align:start;text-decoration-line:none;text-decoration-style:solid;text-decoration-color:#000;text-transform:none;block-progression:tb;isolation:auto;mix-blend-mode:normal" d="M2.594 0a.87.87 0 0 0-.858.883V9.48A2.61 2.61 0 0 0 0 11.926c0 1.126.73 2.082 1.736 2.443v.928c-.025 1.186 1.766 1.186 1.74 0v-.926a2.608 2.608 0 0 0 1.739-2.445 2.61 2.61 0 0 0-1.738-2.447V.882A.87.87 0 0 0 2.594 0zm5.94 0a.87.87 0 0 0-.858.883v.512a2.611 2.611 0 0 0-1.738 2.447 2.61 2.61 0 0 0 1.738 2.447v9.008c-.026 1.185 1.765 1.185 1.74 0v-9.01a2.61 2.61 0 0 0 1.736-2.445 2.61 2.61 0 0 0-1.736-2.445V.883A.87.87 0 0 0 8.533 0zm5.937 0a.87.87 0 0 0-.858.883v4.762a2.61 2.61 0 0 0-1.736 2.445 2.61 2.61 0 0 0 1.736 2.445v4.762c0 1.161 1.742 1.161 1.742 0v-4.762a2.61 2.61 0 0 0 1.737-2.445 2.61 2.61 0 0 0-1.737-2.445V.883A.87.87 0 0 0 14.471 0zM8.545 2.338c.837 0 1.506.667 1.506 1.504s-.669 1.504-1.506 1.504A1.495 1.495 0 0 1 7.04 3.842c0-.837.667-1.504 1.504-1.504zm5.94 4.248c.837 0 1.503.667 1.503 1.504s-.666 1.504-1.504 1.504A1.495 1.495 0 0 1 12.98 8.09c0-.837.667-1.504 1.504-1.504zM2.606 10.42c.838 0 1.504.669 1.504 1.506s-.666 1.504-1.504 1.504a1.495 1.495 0 0 1-1.503-1.504c0-.837.666-1.506 1.503-1.506z" color="#000" font-weight="400" font-family="sans-serif" white-space="normal" overflow="visible" fill="#fff" fill-rule="evenodd"/></svg>